<svg xmlns="http://www.w3.org/2000/svg" xmlns:xlink="http://www.w3.org/1999/xlink" width="500" zoomAndPan="magnify" viewBox="0 0 375 374.999991" height="500" preserveAspectRatio="xMidYMid meet" version="1.0"><defs><g/><clipPath id="id1"><path d="M 0 131.425781 L 126 131.425781 L 126 267.925781 L 0 267.925781 Z M 0 131.425781 " clip-rule="nonzero"/></clipPath></defs><g clip-path="url(#id1)"><path fill="#a545cc" d="M 125.546875 177.234375 C 124.421875 174.058594 121.410156 171.324219 118.03125 171.324219 L 86.5625 171.324219 L 113.398438 145.882812 C 115.71875 143.632812 116.433594 139.816406 115.210938 136.828125 C 113.992188 133.839844 111.074219 131.5 107.835938 131.5 L 53.429688 131.5 C 50.9375 131.5 48.59375 133.351562 47.085938 135.324219 L 1.625 195.179688 C -0.207031 197.578125 -0.515625 200.613281 0.828125 203.316406 C 2.171875 206.019531 4.941406 207.53125 7.964844 207.53125 L 38.664062 207.53125 C 38.769531 207.53125 38.878906 208.253906 38.996094 208.421875 L 12.230469 255.886719 C 10.355469 259.203125 11.109375 263.472656 14.023438 265.933594 C 15.507812 267.179688 17.339844 267.855469 19.171875 267.855469 C 20.945312 267.855469 22.71875 267.292969 24.175781 266.117188 L 123.039062 186.347656 C 125.667969 184.234375 126.667969 180.402344 125.546875 177.234375 Z M 125.546875 177.234375 " fill-opacity="1" fill-rule="nonzero"/></g><g fill="#4d4d4d" fill-opacity="1"><g transform="translate(128.842229, 181.804802)"><g><path d="M 13.058594 0 L 47.878906 0 L 47.878906 -26.113281 L 21.761719 -26.113281 L 21.761719 -17.410156 L 39.171875 -17.410156 L 39.171875 -8.703125 L 13.058594 -8.703125 Z M 4.351562 -8.703125 L 13.058594 -8.703125 L 13.058594 -34.820312 L 4.351562 -34.820312 Z M 13.058594 -34.820312 L 47.878906 -34.820312 L 47.878906 -43.523438 L 13.058594 -43.523438 Z M 13.058594 -34.820312 "/></g></g></g><g fill="#4d4d4d" fill-opacity="1"><g transform="translate(181.685177, 181.804802)"><g><path d="M 4.351562 0 L 13.058594 0 L 13.058594 -8.703125 L 39.171875 -8.703125 L 39.171875 0 L 47.878906 0 L 47.878906 -34.820312 L 39.171875 -34.820312 L 39.171875 -17.410156 L 13.058594 -17.410156 L 13.058594 -34.820312 L 4.351562 -34.820312 Z M 13.058594 -34.820312 L 39.171875 -34.820312 L 39.171875 -43.523438 L 13.058594 -43.523438 Z M 13.058594 -34.820312 "/></g></g></g><g fill="#4d4d4d" fill-opacity="1"><g transform="translate(234.528125, 181.804802)"><g><path d="M 39.171875 0 L 47.878906 0 L 47.878906 -43.523438 L 39.171875 -43.523438 L 39.171875 -34.820312 L 30.46875 -34.820312 L 30.46875 -26.113281 L 39.171875 -26.113281 Z M 4.351562 0 L 13.058594 0 L 13.058594 -26.113281 L 21.761719 -26.113281 L 21.761719 -34.820312 L 13.058594 -34.820312 L 13.058594 -43.523438 L 4.351562 -43.523438 Z M 21.761719 -17.410156 L 30.46875 -17.410156 L 30.46875 -26.113281 L 21.761719 -26.113281 Z M 21.761719 -17.410156 "/></g></g></g><g fill="#4d4d4d" fill-opacity="1"><g transform="translate(287.371068, 181.804802)"><g><path d="M 4.351562 0 L 47.878906 0 L 47.878906 -8.703125 L 13.058594 -8.703125 L 13.058594 -17.410156 L 39.171875 -17.410156 L 39.171875 -26.113281 L 13.058594 -26.113281 L 13.058594 -34.820312 L 47.878906 -34.820312 L 47.878906 -43.523438 L 4.351562 -43.523438 Z M 4.351562 0 "/></g></g></g><g fill="#4d4d4d" fill-opacity="1"><g transform="translate(340.214021, 181.804802)"><g><path d="M 4.351562 0 L 13.058594 0 L 13.058594 -8.703125 L 4.351562 -8.703125 Z M 4.351562 0 "/></g></g></g><g fill="#4d4d4d" fill-opacity="1"><g transform="translate(111.446003, 250.85029)"><g><path d="M 13.058594 -34.820312 L 4.351562 -34.820312 L 4.351562 -26.113281 L 13.058594 -26.113281 Z M 4.351562 0 L 39.171875 0 L 39.171875 -8.703125 L 4.351562 -8.703125 Z M 13.058594 -17.410156 L 39.171875 -17.410156 L 39.171875 -26.113281 L 13.058594 -26.113281 Z M 13.058594 -34.820312 L 47.878906 -34.820312 L 47.878906 -43.523438 L 13.058594 -43.523438 Z M 39.171875 -8.703125 L 47.878906 -8.703125 L 47.878906 -17.410156 L 39.171875 -17.410156 Z M 39.171875 -8.703125 "/></g></g></g><g fill="#4d4d4d" fill-opacity="1"><g transform="translate(164.288951, 250.85029)"><g><path d="M 13.058594 -34.820312 L 4.351562 -34.820312 L 4.351562 -8.703125 L 13.058594 -8.703125 Z M 13.058594 0 L 47.878906 0 L 47.878906 -8.703125 L 13.058594 -8.703125 Z M 13.058594 -34.820312 L 47.878906 -34.820312 L 47.878906 -43.523438 L 13.058594 -43.523438 Z M 13.058594 -34.820312 "/></g></g></g><g fill="#4d4d4d" fill-opacity="1"><g transform="translate(217.131899, 250.85029)"><g><path d="M 39.171875 -8.703125 L 13.058594 -8.703125 L 13.058594 0 L 39.171875 0 Z M 4.351562 -8.703125 L 13.058594 -8.703125 L 13.058594 -34.820312 L 4.351562 -34.820312 Z M 13.058594 -34.820312 L 39.171875 -34.820312 L 39.171875 -43.523438 L 13.058594 -43.523438 Z M 39.171875 -8.703125 L 47.878906 -8.703125 L 47.878906 -34.820312 L 39.171875 -34.820312 Z M 39.171875 -8.703125 "/></g></g></g><g fill="#4d4d4d" fill-opacity="1"><g transform="translate(269.974842, 250.85029)"><g><path d="M 4.351562 0 L 13.058594 0 L 13.058594 -8.703125 L 39.171875 -8.703125 L 39.171875 -17.410156 L 13.058594 -17.410156 L 13.058594 -34.820312 L 39.171875 -34.820312 L 39.171875 -43.523438 L 4.351562 -43.523438 Z M 39.171875 -17.410156 L 47.878906 -17.410156 L 47.878906 -34.820312 L 39.171875 -34.820312 Z M 39.171875 -17.410156 "/></g></g></g><g fill="#4d4d4d" fill-opacity="1"><g transform="translate(322.817795, 250.85029)"><g><path d="M 4.351562 0 L 47.878906 0 L 47.878906 -8.703125 L 13.058594 -8.703125 L 13.058594 -17.410156 L 39.171875 -17.410156 L 39.171875 -26.113281 L 13.058594 -26.113281 L 13.058594 -34.820312 L 47.878906 -34.820312 L 47.878906 -43.523438 L 4.351562 -43.523438 Z M 4.351562 0 "/></g></g></g></svg>